<svg xmlns="http://www.w3.org/2000/svg" viewBox="0 0 24 24" width="24" height="24" fill="none" role="img" aria-label="footsteps.square"><g fill="none" stroke="currentColor" stroke-width="1.6" stroke-linecap="round" stroke-linejoin="round"><path d="M8.2 2.6H15.8C20.8904 2.6 21.4 3.1096 21.4 8.2V15.8C21.4 20.8904 20.8904 21.4 15.8 21.4H8.2C3.1096 21.4 2.6 20.8904 2.6 15.8V8.2C2.6 3.1096 3.1096 2.6 8.2 2.6Z"/><path d="M 9.45,7.13 C 10.49,7.13 11.19,8.06 11.19,9.45 C 11.19,10.84 10.49,12 9.45,12 C 8.4,12 7.71,10.84 7.71,9.45 C 7.71,8.06 8.4,7.13 9.45,7.13 L 9.45,7.13"/><path d="M 7.94,13.28 L 10.96,13.28 L 10.96,14.2 A 1.51,1.51 0 0,1 7.94,14.2 L 7.94,13.28"/><path d="M 14.55,9.45 C 15.6,9.45 16.29,10.38 16.29,11.77 C 16.29,13.16 15.6,14.32 14.55,14.32 C 13.51,14.32 12.81,13.16 12.81,11.77 C 12.81,10.38 13.51,9.45 14.55,9.45"/><path d="M 13.04,15.6 L 16.06,15.6 L 16.06,16.52 A 1.51,1.51 0 0,1 13.04,16.52 L 13.04,15.6"/></g></svg>